<mxfile host="www.draw.io" modified="2020-01-09T08:36:04.365Z" agent="Mozilla/5.0 (Windows NT 10.0; Win64; x64) AppleWebKit/537.36 (KHTML, like Gecko) Chrome/79.0.3945.117 Safari/537.36" etag="nHSG6Ac1T-D38qB8CGR4" version="12.4.9" type="github">
  <diagram name="Page-1" id="c7488fd3-1785-93aa-aadb-54a6760d102a">
    <mxGraphModel dx="1733" dy="955" grid="1" gridSize="10" guides="1" tooltips="1" connect="1" arrows="1" fold="1" page="1" pageScale="1" pageWidth="1100" pageHeight="850" background="#ffffff" math="0" shadow="0">
      <root>
        <mxCell id="0"/>
        <mxCell id="1" parent="0"/>
        <mxCell id="2b4e8129b02d487f-1" value="Pool" style="swimlane;html=1;childLayout=stackLayout;horizontal=1;startSize=20;horizontalStack=0;rounded=0;shadow=0;labelBackgroundColor=none;strokeWidth=1;fontFamily=Verdana;fontSize=8;align=center;" parent="1" vertex="1">
          <mxGeometry x="40" y="160" width="2230" height="720" as="geometry"/>
        </mxCell>
        <mxCell id="2b4e8129b02d487f-2" value="BGĐ/ Khách hàng" style="swimlane;html=1;startSize=20;horizontal=0;" parent="2b4e8129b02d487f-1" vertex="1">
          <mxGeometry y="20" width="2230" height="150" as="geometry"/>
        </mxCell>
        <mxCell id="-Ed_zh9Tme-zRKof6G9Q-1" value="Yêu cầu" style="ellipse;whiteSpace=wrap;html=1;fontFamily=Verdana;strokeWidth=2;" vertex="1" parent="2b4e8129b02d487f-2">
          <mxGeometry x="80" y="40" width="89" height="60" as="geometry"/>
        </mxCell>
        <mxCell id="-Ed_zh9Tme-zRKof6G9Q-53" value="" style="endArrow=classic;html=1;strokeWidth=2;" edge="1" parent="2b4e8129b02d487f-2">
          <mxGeometry width="50" height="50" relative="1" as="geometry">
            <mxPoint x="420" y="50" as="sourcePoint"/>
            <mxPoint x="450" y="50" as="targetPoint"/>
          </mxGeometry>
        </mxCell>
        <mxCell id="-Ed_zh9Tme-zRKof6G9Q-17" value="Confirm" style="shape=process;whiteSpace=wrap;html=1;backgroundOutline=1;fontFamily=Verdana;fontSize=15;strokeWidth=2;" vertex="1" parent="2b4e8129b02d487f-2">
          <mxGeometry x="450" y="20" width="100" height="60" as="geometry"/>
        </mxCell>
        <mxCell id="-Ed_zh9Tme-zRKof6G9Q-68" value="" style="endArrow=none;html=1;" edge="1" parent="2b4e8129b02d487f-2">
          <mxGeometry width="50" height="50" relative="1" as="geometry">
            <mxPoint x="460" y="110" as="sourcePoint"/>
            <mxPoint x="580" y="110" as="targetPoint"/>
          </mxGeometry>
        </mxCell>
        <mxCell id="-Ed_zh9Tme-zRKof6G9Q-69" value="" style="endArrow=none;html=1;" edge="1" parent="2b4e8129b02d487f-2">
          <mxGeometry width="50" height="50" relative="1" as="geometry">
            <mxPoint x="550" y="50" as="sourcePoint"/>
            <mxPoint x="580" y="50" as="targetPoint"/>
          </mxGeometry>
        </mxCell>
        <mxCell id="-Ed_zh9Tme-zRKof6G9Q-70" value="" style="endArrow=none;html=1;" edge="1" parent="2b4e8129b02d487f-2">
          <mxGeometry width="50" height="50" relative="1" as="geometry">
            <mxPoint x="580" y="110" as="sourcePoint"/>
            <mxPoint x="580" y="50" as="targetPoint"/>
          </mxGeometry>
        </mxCell>
        <mxCell id="2b4e8129b02d487f-3" value="Team Hardware" style="swimlane;html=1;startSize=20;horizontal=0;" parent="2b4e8129b02d487f-1" vertex="1">
          <mxGeometry y="170" width="2230" height="400" as="geometry"/>
        </mxCell>
        <mxCell id="-Ed_zh9Tme-zRKof6G9Q-3" value="IoT Leader&lt;br style=&quot;font-size: 15px&quot;&gt;phê duyệt" style="shape=mxgraph.flowchart.decision;strokeWidth=2;gradientColor=none;gradientDirection=north;fontStyle=0;html=1;fontFamily=Verdana;fontSize=15;" vertex="1" parent="2b4e8129b02d487f-3">
          <mxGeometry x="230" y="52.440000000000005" width="180" height="95.12" as="geometry"/>
        </mxCell>
        <mxCell id="-Ed_zh9Tme-zRKof6G9Q-20" value="" style="endArrow=none;html=1;fontFamily=Verdana;strokeWidth=2;" edge="1" parent="2b4e8129b02d487f-3">
          <mxGeometry width="50" height="50" relative="1" as="geometry">
            <mxPoint x="120" y="210" as="sourcePoint"/>
            <mxPoint x="320" y="210" as="targetPoint"/>
          </mxGeometry>
        </mxCell>
        <mxCell id="-Ed_zh9Tme-zRKof6G9Q-62" value="" style="endArrow=none;html=1;" edge="1" parent="2b4e8129b02d487f-3">
          <mxGeometry width="50" height="50" relative="1" as="geometry">
            <mxPoint x="320" y="210" as="sourcePoint"/>
            <mxPoint x="320" y="150" as="targetPoint"/>
          </mxGeometry>
        </mxCell>
        <mxCell id="-Ed_zh9Tme-zRKof6G9Q-65" value="" style="endArrow=none;html=1;" edge="1" parent="2b4e8129b02d487f-3">
          <mxGeometry width="50" height="50" relative="1" as="geometry">
            <mxPoint x="410" y="100" as="sourcePoint"/>
            <mxPoint x="420" y="100" as="targetPoint"/>
          </mxGeometry>
        </mxCell>
        <mxCell id="-Ed_zh9Tme-zRKof6G9Q-66" value="YES" style="text;html=1;align=center;verticalAlign=middle;resizable=0;points=[];autosize=1;" vertex="1" parent="2b4e8129b02d487f-3">
          <mxGeometry x="400" y="110" width="40" height="20" as="geometry"/>
        </mxCell>
        <mxCell id="-Ed_zh9Tme-zRKof6G9Q-64" value="" style="endArrow=none;html=1;" edge="1" parent="2b4e8129b02d487f-3">
          <mxGeometry width="50" height="50" relative="1" as="geometry">
            <mxPoint x="419.5" y="100" as="sourcePoint"/>
            <mxPoint x="419.5" y="-100" as="targetPoint"/>
          </mxGeometry>
        </mxCell>
        <mxCell id="-Ed_zh9Tme-zRKof6G9Q-67" value="" style="endArrow=none;html=1;" edge="1" parent="2b4e8129b02d487f-3">
          <mxGeometry width="50" height="50" relative="1" as="geometry">
            <mxPoint x="460" y="100" as="sourcePoint"/>
            <mxPoint x="460" y="-40" as="targetPoint"/>
          </mxGeometry>
        </mxCell>
        <mxCell id="-Ed_zh9Tme-zRKof6G9Q-74" value="" style="endArrow=classic;html=1;entryX=0;entryY=0.625;entryDx=0;entryDy=0;entryPerimeter=0;" edge="1" parent="2b4e8129b02d487f-3" target="-Ed_zh9Tme-zRKof6G9Q-7">
          <mxGeometry width="50" height="50" relative="1" as="geometry">
            <mxPoint x="460" y="100" as="sourcePoint"/>
            <mxPoint x="480" y="100" as="targetPoint"/>
          </mxGeometry>
        </mxCell>
        <mxCell id="-Ed_zh9Tme-zRKof6G9Q-41" value="Update specs, solutions" style="shape=mxgraph.flowchart.document;strokeWidth=2;gradientColor=none;gradientDirection=north;fontStyle=0;html=1;fontFamily=Verdana;fontSize=15;" vertex="1" parent="2b4e8129b02d487f-3">
          <mxGeometry x="120" y="220" width="200" height="85" as="geometry"/>
        </mxCell>
        <mxCell id="-Ed_zh9Tme-zRKof6G9Q-79" value="" style="endArrow=classic;html=1;" edge="1" parent="2b4e8129b02d487f-3">
          <mxGeometry width="50" height="50" relative="1" as="geometry">
            <mxPoint x="520" y="350" as="sourcePoint"/>
            <mxPoint x="520" y="130" as="targetPoint"/>
          </mxGeometry>
        </mxCell>
        <mxCell id="-Ed_zh9Tme-zRKof6G9Q-81" value="" style="endArrow=none;html=1;" edge="1" parent="2b4e8129b02d487f-3">
          <mxGeometry width="50" height="50" relative="1" as="geometry">
            <mxPoint x="280" y="350" as="sourcePoint"/>
            <mxPoint x="520" y="350" as="targetPoint"/>
          </mxGeometry>
        </mxCell>
        <mxCell id="2b4e8129b02d487f-4" value="Cơ khí" style="swimlane;html=1;startSize=20;horizontal=0;" parent="2b4e8129b02d487f-1" vertex="1">
          <mxGeometry y="570" width="2230" height="150" as="geometry"/>
        </mxCell>
        <mxCell id="-Ed_zh9Tme-zRKof6G9Q-8" value="Lấy yêu cầu từ team Cơ khí" style="shape=mxgraph.flowchart.predefined_process;strokeWidth=2;gradientColor=none;gradientDirection=north;fontStyle=0;html=1;fontFamily=Verdana;fontSize=15;" vertex="1" parent="2b4e8129b02d487f-4">
          <mxGeometry x="440" y="30" width="610" height="90" as="geometry"/>
        </mxCell>
        <mxCell id="-Ed_zh9Tme-zRKof6G9Q-44" value="Phòng SX" style="rounded=0;whiteSpace=wrap;html=1;fontFamily=Verdana;fontSize=15;strokeWidth=2;" vertex="1" parent="2b4e8129b02d487f-4">
          <mxGeometry x="1800" y="45" width="160" height="60" as="geometry"/>
        </mxCell>
        <mxCell id="-Ed_zh9Tme-zRKof6G9Q-80" value="" style="endArrow=none;html=1;" edge="1" parent="2b4e8129b02d487f-4">
          <mxGeometry width="50" height="50" relative="1" as="geometry">
            <mxPoint x="280" y="180" as="sourcePoint"/>
            <mxPoint x="280" y="-50" as="targetPoint"/>
          </mxGeometry>
        </mxCell>
        <mxCell id="-Ed_zh9Tme-zRKof6G9Q-2" style="fontStyle=1;strokeColor=#003366;strokeWidth=2;html=1;exitX=0.5;exitY=1;exitDx=0;exitDy=0;fontFamily=Verdana;" edge="1" parent="1">
          <mxGeometry relative="1" as="geometry">
            <mxPoint x="160.25" y="280" as="sourcePoint"/>
            <mxPoint x="159.5" y="390" as="targetPoint"/>
          </mxGeometry>
        </mxCell>
        <mxCell id="-Ed_zh9Tme-zRKof6G9Q-4" value="" style="edgeStyle=orthogonalEdgeStyle;rounded=0;orthogonalLoop=1;jettySize=auto;html=1;fontFamily=Verdana;strokeWidth=2;" edge="1" parent="1" source="-Ed_zh9Tme-zRKof6G9Q-5" target="-Ed_zh9Tme-zRKof6G9Q-10">
          <mxGeometry relative="1" as="geometry"/>
        </mxCell>
        <mxCell id="-Ed_zh9Tme-zRKof6G9Q-6" value="" style="edgeStyle=orthogonalEdgeStyle;rounded=0;orthogonalLoop=1;jettySize=auto;html=1;fontFamily=Verdana;strokeWidth=2;" edge="1" parent="1" source="-Ed_zh9Tme-zRKof6G9Q-7" target="-Ed_zh9Tme-zRKof6G9Q-5">
          <mxGeometry relative="1" as="geometry"/>
        </mxCell>
        <mxCell id="-Ed_zh9Tme-zRKof6G9Q-9" value="" style="edgeStyle=orthogonalEdgeStyle;rounded=0;orthogonalLoop=1;jettySize=auto;html=1;fontFamily=Verdana;strokeWidth=2;" edge="1" parent="1" source="-Ed_zh9Tme-zRKof6G9Q-10" target="-Ed_zh9Tme-zRKof6G9Q-12">
          <mxGeometry relative="1" as="geometry"/>
        </mxCell>
        <mxCell id="-Ed_zh9Tme-zRKof6G9Q-11" value="" style="edgeStyle=orthogonalEdgeStyle;rounded=0;orthogonalLoop=1;jettySize=auto;html=1;fontFamily=Verdana;strokeWidth=2;" edge="1" parent="1" source="-Ed_zh9Tme-zRKof6G9Q-12" target="-Ed_zh9Tme-zRKof6G9Q-14">
          <mxGeometry relative="1" as="geometry"/>
        </mxCell>
        <mxCell id="-Ed_zh9Tme-zRKof6G9Q-13" value="" style="edgeStyle=orthogonalEdgeStyle;rounded=0;orthogonalLoop=1;jettySize=auto;html=1;fontFamily=Verdana;strokeWidth=2;" edge="1" parent="1" source="-Ed_zh9Tme-zRKof6G9Q-14" target="-Ed_zh9Tme-zRKof6G9Q-33">
          <mxGeometry relative="1" as="geometry"/>
        </mxCell>
        <mxCell id="-Ed_zh9Tme-zRKof6G9Q-19" value="" style="endArrow=classic;html=1;fontFamily=Verdana;strokeWidth=2;" edge="1" parent="1">
          <mxGeometry width="50" height="50" relative="1" as="geometry">
            <mxPoint x="160" y="540" as="sourcePoint"/>
            <mxPoint x="160" y="470" as="targetPoint"/>
          </mxGeometry>
        </mxCell>
        <mxCell id="-Ed_zh9Tme-zRKof6G9Q-23" value="" style="endArrow=classic;html=1;entryX=0.25;entryY=1;entryDx=0;entryDy=0;fontFamily=Verdana;strokeWidth=2;" edge="1" parent="1">
          <mxGeometry width="50" height="50" relative="1" as="geometry">
            <mxPoint x="640" y="537.5" as="sourcePoint"/>
            <mxPoint x="640" y="460" as="targetPoint"/>
          </mxGeometry>
        </mxCell>
        <mxCell id="-Ed_zh9Tme-zRKof6G9Q-24" value="" style="endArrow=none;html=1;fontFamily=Verdana;strokeWidth=2;" edge="1" parent="1">
          <mxGeometry width="50" height="50" relative="1" as="geometry">
            <mxPoint x="640" y="538" as="sourcePoint"/>
            <mxPoint x="790" y="537.5" as="targetPoint"/>
          </mxGeometry>
        </mxCell>
        <mxCell id="-Ed_zh9Tme-zRKof6G9Q-25" value="" style="endArrow=none;html=1;entryX=0.5;entryY=1;entryDx=0;entryDy=0;entryPerimeter=0;fontFamily=Verdana;strokeWidth=2;" edge="1" parent="1">
          <mxGeometry width="50" height="50" relative="1" as="geometry">
            <mxPoint x="790" y="537.5" as="sourcePoint"/>
            <mxPoint x="789.79" y="467.5" as="targetPoint"/>
          </mxGeometry>
        </mxCell>
        <mxCell id="-Ed_zh9Tme-zRKof6G9Q-27" value="" style="endArrow=none;html=1;fontFamily=Verdana;strokeWidth=2;" edge="1" parent="1">
          <mxGeometry width="50" height="50" relative="1" as="geometry">
            <mxPoint x="1040" y="537" as="sourcePoint"/>
            <mxPoint x="1190" y="537.5" as="targetPoint"/>
          </mxGeometry>
        </mxCell>
        <mxCell id="-Ed_zh9Tme-zRKof6G9Q-28" value="" style="endArrow=none;html=1;entryX=0.5;entryY=1;entryDx=0;entryDy=0;entryPerimeter=0;fontFamily=Verdana;strokeWidth=2;" edge="1" parent="1">
          <mxGeometry width="50" height="50" relative="1" as="geometry">
            <mxPoint x="1190" y="537.5" as="sourcePoint"/>
            <mxPoint x="1189.79" y="467.5" as="targetPoint"/>
          </mxGeometry>
        </mxCell>
        <mxCell id="-Ed_zh9Tme-zRKof6G9Q-30" value="" style="endArrow=classic;html=1;entryX=0.148;entryY=-0.025;entryDx=0;entryDy=0;entryPerimeter=0;fontFamily=Verdana;strokeWidth=2;" edge="1" parent="1">
          <mxGeometry width="50" height="50" relative="1" as="geometry">
            <mxPoint x="870" y="420" as="sourcePoint"/>
            <mxPoint x="869.5999999999999" y="557.875" as="targetPoint"/>
          </mxGeometry>
        </mxCell>
        <mxCell id="-Ed_zh9Tme-zRKof6G9Q-31" value="" style="endArrow=classic;html=1;entryX=0.148;entryY=-0.025;entryDx=0;entryDy=0;entryPerimeter=0;fontFamily=Verdana;strokeWidth=2;" edge="1" parent="1">
          <mxGeometry width="50" height="50" relative="1" as="geometry">
            <mxPoint x="1290.3999999999996" y="420" as="sourcePoint"/>
            <mxPoint x="1290" y="557.875" as="targetPoint"/>
          </mxGeometry>
        </mxCell>
        <mxCell id="-Ed_zh9Tme-zRKof6G9Q-32" value="" style="edgeStyle=orthogonalEdgeStyle;rounded=0;orthogonalLoop=1;jettySize=auto;html=1;fontFamily=Verdana;strokeWidth=2;" edge="1" parent="1" source="-Ed_zh9Tme-zRKof6G9Q-33" target="-Ed_zh9Tme-zRKof6G9Q-43">
          <mxGeometry relative="1" as="geometry"/>
        </mxCell>
        <mxCell id="-Ed_zh9Tme-zRKof6G9Q-34" value="" style="endArrow=none;html=1;exitX=0.5;exitY=0;exitDx=0;exitDy=0;exitPerimeter=0;fontFamily=Verdana;strokeWidth=2;" edge="1" parent="1" source="-Ed_zh9Tme-zRKof6G9Q-33">
          <mxGeometry width="50" height="50" relative="1" as="geometry">
            <mxPoint x="1549.94" y="370" as="sourcePoint"/>
            <mxPoint x="1550" y="340" as="targetPoint"/>
          </mxGeometry>
        </mxCell>
        <mxCell id="-Ed_zh9Tme-zRKof6G9Q-42" value="" style="edgeStyle=orthogonalEdgeStyle;rounded=0;orthogonalLoop=1;jettySize=auto;html=1;fontFamily=Verdana;strokeWidth=2;" edge="1" parent="1" source="-Ed_zh9Tme-zRKof6G9Q-43" target="-Ed_zh9Tme-zRKof6G9Q-48">
          <mxGeometry relative="1" as="geometry"/>
        </mxCell>
        <mxCell id="-Ed_zh9Tme-zRKof6G9Q-45" value="" style="endArrow=classic;html=1;entryX=0.435;entryY=-0.022;entryDx=0;entryDy=0;entryPerimeter=0;fontFamily=Verdana;strokeWidth=2;" edge="1" parent="1" target="-Ed_zh9Tme-zRKof6G9Q-44">
          <mxGeometry width="50" height="50" relative="1" as="geometry">
            <mxPoint x="1909.9799999999996" y="460" as="sourcePoint"/>
            <mxPoint x="1909.58" y="597.875" as="targetPoint"/>
          </mxGeometry>
        </mxCell>
        <mxCell id="-Ed_zh9Tme-zRKof6G9Q-47" value="" style="endArrow=none;dashed=1;html=1;exitX=0.571;exitY=0.079;exitDx=0;exitDy=0;exitPerimeter=0;fontFamily=Verdana;strokeWidth=2;" edge="1" parent="1" source="-Ed_zh9Tme-zRKof6G9Q-33">
          <mxGeometry width="50" height="50" relative="1" as="geometry">
            <mxPoint x="1510" y="310" as="sourcePoint"/>
            <mxPoint x="1560" y="260" as="targetPoint"/>
          </mxGeometry>
        </mxCell>
        <mxCell id="-Ed_zh9Tme-zRKof6G9Q-49" value="" style="endArrow=classic;html=1;strokeWidth=2;exitX=0.197;exitY=0.011;exitDx=0;exitDy=0;exitPerimeter=0;" edge="1" parent="1" source="-Ed_zh9Tme-zRKof6G9Q-8">
          <mxGeometry width="50" height="50" relative="1" as="geometry">
            <mxPoint x="550" y="510" as="sourcePoint"/>
            <mxPoint x="600" y="460" as="targetPoint"/>
          </mxGeometry>
        </mxCell>
        <mxCell id="-Ed_zh9Tme-zRKof6G9Q-51" value="" style="endArrow=classic;html=1;entryX=0.371;entryY=1.018;entryDx=0;entryDy=0;entryPerimeter=0;fontFamily=Verdana;strokeWidth=2;" edge="1" parent="1">
          <mxGeometry width="50" height="50" relative="1" as="geometry">
            <mxPoint x="1040.6400000000003" y="536.06" as="sourcePoint"/>
            <mxPoint x="1040" y="460" as="targetPoint"/>
          </mxGeometry>
        </mxCell>
        <mxCell id="-Ed_zh9Tme-zRKof6G9Q-52" value="" style="endArrow=classic;html=1;strokeWidth=2;exitX=0.786;exitY=0.011;exitDx=0;exitDy=0;exitPerimeter=0;" edge="1" parent="1" source="-Ed_zh9Tme-zRKof6G9Q-8">
          <mxGeometry width="50" height="50" relative="1" as="geometry">
            <mxPoint x="960.1700000000001" y="690.0000000000002" as="sourcePoint"/>
            <mxPoint x="960" y="459.00999999999976" as="targetPoint"/>
          </mxGeometry>
        </mxCell>
        <mxCell id="-Ed_zh9Tme-zRKof6G9Q-5" value="Review" style="shape=mxgraph.flowchart.decision;strokeWidth=2;gradientColor=none;gradientDirection=north;fontStyle=0;html=1;fontFamily=Verdana;fontSize=15;" vertex="1" parent="1">
          <mxGeometry x="720" y="372.5" width="140" height="95" as="geometry"/>
        </mxCell>
        <mxCell id="-Ed_zh9Tme-zRKof6G9Q-7" value="&lt;span style=&quot;white-space: nowrap ; font-size: 15px&quot;&gt;Thiết kế mạch &lt;br&gt;nguyên lý&lt;/span&gt;" style="rounded=0;whiteSpace=wrap;html=1;fontFamily=Verdana;fontSize=15;strokeWidth=2;" vertex="1" parent="1">
          <mxGeometry x="540" y="380" width="140" height="80" as="geometry"/>
        </mxCell>
        <mxCell id="-Ed_zh9Tme-zRKof6G9Q-10" value="&lt;span style=&quot;white-space: nowrap; font-size: 15px;&quot;&gt;Layout mạch&lt;/span&gt;" style="rounded=0;whiteSpace=wrap;html=1;fontFamily=Verdana;fontSize=15;strokeWidth=2;" vertex="1" parent="1">
          <mxGeometry x="900" y="380" width="160" height="80" as="geometry"/>
        </mxCell>
        <mxCell id="-Ed_zh9Tme-zRKof6G9Q-12" value="Review" style="shape=mxgraph.flowchart.decision;strokeWidth=2;gradientColor=none;gradientDirection=north;fontStyle=0;html=1;fontFamily=Verdana;fontSize=15;" vertex="1" parent="1">
          <mxGeometry x="1120" y="372.5" width="140" height="95" as="geometry"/>
        </mxCell>
        <mxCell id="-Ed_zh9Tme-zRKof6G9Q-14" value="&lt;span style=&quot;white-space: nowrap; font-size: 15px;&quot;&gt;Prototype&lt;br style=&quot;font-size: 15px;&quot;&gt;Test&lt;br style=&quot;font-size: 15px;&quot;&gt;&lt;/span&gt;" style="rounded=0;whiteSpace=wrap;html=1;fontFamily=Verdana;fontSize=15;strokeWidth=2;" vertex="1" parent="1">
          <mxGeometry x="1320" y="380" width="100" height="80" as="geometry"/>
        </mxCell>
        <mxCell id="-Ed_zh9Tme-zRKof6G9Q-15" value="Review report&lt;br style=&quot;font-size: 15px;&quot;&gt;Update BOM&lt;br style=&quot;font-size: 15px;&quot;&gt;Layout files" style="shape=mxgraph.flowchart.document;strokeWidth=2;gradientColor=none;gradientDirection=north;fontStyle=0;html=1;fontFamily=Verdana;fontSize=15;" vertex="1" parent="1">
          <mxGeometry x="1240" y="560" width="200" height="85" as="geometry"/>
        </mxCell>
        <mxCell id="-Ed_zh9Tme-zRKof6G9Q-63" value="" style="edgeStyle=orthogonalEdgeStyle;rounded=0;orthogonalLoop=1;jettySize=auto;html=1;" edge="1" parent="1" source="-Ed_zh9Tme-zRKof6G9Q-18" target="-Ed_zh9Tme-zRKof6G9Q-3">
          <mxGeometry relative="1" as="geometry"/>
        </mxCell>
        <mxCell id="-Ed_zh9Tme-zRKof6G9Q-18" value="Tiếp nhận&lt;br&gt;Phân tích&lt;br&gt;Giải pháp" style="rounded=0;whiteSpace=wrap;html=1;fontFamily=Verdana;fontSize=15;strokeWidth=2;" vertex="1" parent="1">
          <mxGeometry x="120" y="390" width="122" height="80" as="geometry"/>
        </mxCell>
        <mxCell id="-Ed_zh9Tme-zRKof6G9Q-22" value="YES" style="text;html=1;align=center;verticalAlign=middle;resizable=0;points=[];autosize=1;fontFamily=Verdana;strokeWidth=2;" vertex="1" parent="1">
          <mxGeometry x="850" y="390" width="40" height="20" as="geometry"/>
        </mxCell>
        <mxCell id="-Ed_zh9Tme-zRKof6G9Q-26" value="NO" style="text;html=1;align=center;verticalAlign=middle;resizable=0;points=[];autosize=1;fontFamily=Verdana;strokeWidth=2;" vertex="1" parent="1">
          <mxGeometry x="800" y="497.5" width="30" height="20" as="geometry"/>
        </mxCell>
        <mxCell id="-Ed_zh9Tme-zRKof6G9Q-29" value="NO" style="text;html=1;align=center;verticalAlign=middle;resizable=0;points=[];autosize=1;fontFamily=Verdana;strokeWidth=2;" vertex="1" parent="1">
          <mxGeometry x="1200" y="497.5" width="30" height="20" as="geometry"/>
        </mxCell>
        <mxCell id="-Ed_zh9Tme-zRKof6G9Q-33" value="Approve ?" style="shape=mxgraph.flowchart.decision;strokeWidth=2;gradientColor=none;gradientDirection=north;fontStyle=0;html=1;fontFamily=Verdana;fontSize=15;" vertex="1" parent="1">
          <mxGeometry x="1480" y="372.5" width="140" height="95" as="geometry"/>
        </mxCell>
        <mxCell id="-Ed_zh9Tme-zRKof6G9Q-37" value="NO" style="text;html=1;align=center;verticalAlign=middle;resizable=0;points=[];autosize=1;fontFamily=Verdana;strokeWidth=2;" vertex="1" parent="1">
          <mxGeometry x="1510" y="350" width="30" height="20" as="geometry"/>
        </mxCell>
        <mxCell id="-Ed_zh9Tme-zRKof6G9Q-43" value="&lt;span style=&quot;white-space: nowrap; font-size: 15px;&quot;&gt;Test report&lt;br style=&quot;font-size: 15px;&quot;&gt;Design files&lt;br style=&quot;font-size: 15px;&quot;&gt;Production files&lt;br style=&quot;font-size: 15px;&quot;&gt;&lt;/span&gt;" style="rounded=0;whiteSpace=wrap;html=1;fontFamily=Verdana;fontSize=15;strokeWidth=2;" vertex="1" parent="1">
          <mxGeometry x="1840" y="380" width="140" height="80" as="geometry"/>
        </mxCell>
        <mxCell id="-Ed_zh9Tme-zRKof6G9Q-46" value="Phê duyệt" style="shape=process;whiteSpace=wrap;html=1;backgroundOutline=1;fontFamily=Verdana;fontSize=15;strokeWidth=2;" vertex="1" parent="1">
          <mxGeometry x="1490" y="202.5" width="120" height="60" as="geometry"/>
        </mxCell>
        <mxCell id="-Ed_zh9Tme-zRKof6G9Q-48" value="Kết thúc" style="ellipse;whiteSpace=wrap;html=1;fontFamily=Verdana;fontSize=15;strokeWidth=2;" vertex="1" parent="1">
          <mxGeometry x="2060" y="395" width="120" height="50" as="geometry"/>
        </mxCell>
        <mxCell id="-Ed_zh9Tme-zRKof6G9Q-50" value="Review report&lt;br style=&quot;font-size: 15px;&quot;&gt;Draft BOM&lt;br style=&quot;font-size: 15px;&quot;&gt;Schematic" style="shape=mxgraph.flowchart.document;strokeWidth=2;gradientColor=none;gradientDirection=north;fontStyle=0;html=1;fontFamily=Verdana;fontSize=15;" vertex="1" parent="1">
          <mxGeometry x="730" y="560" width="200" height="85" as="geometry"/>
        </mxCell>
        <mxCell id="-Ed_zh9Tme-zRKof6G9Q-56" value="&lt;span style=&quot;white-space: nowrap ; font-size: 15px&quot;&gt;Pilot&lt;br&gt;prototype&lt;br style=&quot;font-size: 15px&quot;&gt;&lt;/span&gt;" style="rounded=0;whiteSpace=wrap;html=1;fontFamily=Verdana;fontSize=15;strokeWidth=2;" vertex="1" parent="1">
          <mxGeometry x="1680" y="380" width="100" height="80" as="geometry"/>
        </mxCell>
        <mxCell id="-Ed_zh9Tme-zRKof6G9Q-57" value="&lt;font style=&quot;font-size: 16px&quot;&gt;10-20 mach&lt;/font&gt;" style="text;html=1;align=center;verticalAlign=middle;resizable=0;points=[];autosize=1;" vertex="1" parent="1">
          <mxGeometry x="1680" y="470" width="100" height="20" as="geometry"/>
        </mxCell>
        <mxCell id="-Ed_zh9Tme-zRKof6G9Q-59" value="&lt;span style=&quot;font-family: &amp;#34;verdana&amp;#34;&quot;&gt;NO&lt;/span&gt;" style="text;html=1;align=center;verticalAlign=middle;resizable=0;points=[];autosize=1;" vertex="1" parent="1">
          <mxGeometry x="330" y="514" width="30" height="20" as="geometry"/>
        </mxCell>
        <mxCell id="-Ed_zh9Tme-zRKof6G9Q-76" value="SW/FW" style="swimlane;html=1;startSize=20;horizontal=0;" vertex="1" parent="1">
          <mxGeometry x="40" y="880" width="2230" height="150" as="geometry"/>
        </mxCell>
        <mxCell id="-Ed_zh9Tme-zRKof6G9Q-77" value="Software/Firmware" style="shape=mxgraph.flowchart.predefined_process;strokeWidth=2;gradientColor=none;gradientDirection=north;fontStyle=0;html=1;fontFamily=Verdana;fontSize=15;" vertex="1" parent="-Ed_zh9Tme-zRKof6G9Q-76">
          <mxGeometry x="160" y="30" width="220" height="90" as="geometry"/>
        </mxCell>
        <mxCell id="-Ed_zh9Tme-zRKof6G9Q-78" value="Phòng SX" style="rounded=0;whiteSpace=wrap;html=1;fontFamily=Verdana;fontSize=15;strokeWidth=2;" vertex="1" parent="-Ed_zh9Tme-zRKof6G9Q-76">
          <mxGeometry x="1800" y="45" width="160" height="60" as="geometry"/>
        </mxCell>
      </root>
    </mxGraphModel>
  </diagram>
</mxfile>
